<svg width="157" height="118" viewBox="0 0 157 118" fill="none" xmlns="http://www.w3.org/2000/svg">
<rect x="17" y="5" width="123" height="113" rx="33" fill="#A2BAD3"/>
<rect x="24" y="20" width="107" height="98" rx="33" fill="#45475F"/>
<circle cx="61" cy="58" r="7" fill="#6CA3DD"/>
<circle cx="96" cy="58" r="7" fill="#6CA3DD"/>
<path d="M79.7285 78.1249C79.4346 84.0863 83.502 95.7986 102.123 94.957C104.533 86.0734 103.428 70.2699 79.7285 78.1249Z" fill="#6CA3DD"/>
<path d="M58.745 93.905C64.9166 95.8336 77.7536 95.3778 79.7285 78.1249C69.6188 74.6767 51.2685 73.0051 58.745 93.905Z" fill="#6CA3DD"/>
<rect y="46" width="18" height="30" rx="9" fill="#A2BAD3"/>
<rect x="139" y="46" width="18" height="30" rx="9" fill="#A2BAD3"/>
<rect x="142" width="6" height="52" rx="3" fill="#A2BAD3"/>
<rect x="9" width="6" height="52" rx="3" fill="#A2BAD3"/>
<path d="M61 42.5C68.9782 42.5 75.5 49.4087 75.5 58C75.5 66.5913 68.9782 73.5 61 73.5C53.0218 73.5 46.5 66.5913 46.5 58C46.5 49.4087 53.0218 42.5 61 42.5Z" stroke="#6CA3DD"/>
<path d="M95 42.5C102.978 42.5 109.5 49.4087 109.5 58C109.5 66.5913 102.978 73.5 95 73.5C87.0218 73.5 80.5 66.5913 80.5 58C80.5 49.4087 87.0218 42.5 95 42.5Z" stroke="#6CA3DD"/>
<line x1="76" y1="57.5" x2="80" y2="57.5" stroke="#6CA3DD"/>
</svg>
