<svg width="137" height="116" viewBox="0 0 137 116" fill="none" xmlns="http://www.w3.org/2000/svg">
<rect x="1.37058" y="2.44376" width="123" height="113" rx="33" fill="#EDD9C4"/>
<ellipse cx="39.8706" cy="60.4438" rx="8.5" ry="11" fill="black"/>
<ellipse cx="88.8706" cy="60.4438" rx="8.5" ry="11" fill="black"/>
<path d="M64.3706 2.44375C62.3706 43.2438 21.8706 47.7771 1.87058 44.9437C-10.1294 -2.65625 38.5372 -3.22292 64.3706 2.44375C123.171 -9.15625 128.204 25.9437 123.371 44.9437C75.7706 44.9437 64.2039 16.6104 64.3706 2.44375Z" fill="black"/>
<path d="M118.832 27.7703H134.909V77.1084H118.832V27.7703Z" fill="#E6C46D"/>
<path d="M126.871 17.4438L135.098 27.7703H118.643L126.871 17.4438Z" fill="#EDD9C4"/>
<path d="M126.871 17.4438L128.769 20.0254H124.972L126.871 17.4438Z" fill="#45475F"/>
<path d="M118.832 77.1084C121.512 81.8892 128.478 88.5824 134.909 77.1084H118.832Z" fill="#E88080"/>
<rect x="118.832" y="70.224" width="16.0769" height="6.88438" fill="#D9D9D9"/>
</svg>
